<svg xmlns="http://www.w3.org/2000/svg" viewBox="0 0 29.9 29.9">
  <defs>
    <style>
      .cls-1 {
        fill: none;
      }

      .cls-2 {
        fill: #fff;
      }
    </style>
  </defs>
  <g id="Activity" transform="translate(0)">
    <path id="Path_1002" data-name="Path 1002" class="cls-1" d="M0,0H29.9V29.9H0Z"/>
    <path id="Path_1003" data-name="Path 1003" class="cls-2" d="M16.1,6.463A2.492,2.492,0,1,0,13.6,3.972,2.5,2.5,0,0,0,16.1,6.463ZM11.611,23.78,12.857,18.3l2.616,2.492v7.475h2.492V18.921L15.348,16.43l.747-3.737a9.123,9.123,0,0,0,6.852,3.115V13.315a6.128,6.128,0,0,1-5.357-2.99L16.345,8.332a2.569,2.569,0,0,0-2.118-1.246c-.374,0-.623.125-1,.125L6.752,9.952v5.855H9.244V11.571l2.242-.872L9.493,20.79l-6.1-1.246-.5,2.492Z" transform="translate(0.71 0.364)"/>
  </g>
</svg>
